<svg width="34" height="48" viewBox="0 0 34 48" fill="none" xmlns="http://www.w3.org/2000/svg">
<g clip-path="url(#clip0_3334_2)">
<path d="M17.083 0.311707C16.7747 0.393738 16.3953 0.546082 16.253 0.639832C16.0395 0.780457 15.8616 0.780457 15.3043 0.686707C14.8062 0.592957 14.5098 0.604675 14.154 0.710144C13.241 0.979675 12.3753 2.02264 12.3753 2.83124C12.3753 3.1828 12.3516 3.19452 12.0077 3.12421C11.5215 3.01874 10.9997 3.24139 10.8337 3.65155C10.727 3.89764 10.7389 4.16718 10.8812 4.85858C10.9879 5.35077 11.0709 6.04218 11.0709 6.39374C11.0709 7.44843 11.3081 8.8078 11.6401 9.61639C12.0907 10.7531 13.3121 11.9367 14.4505 12.3586C14.913 12.5226 15.4822 12.6984 15.7312 12.7336L16.1937 12.8039L16.1225 13.4719C16.0751 13.8351 16.0276 14.9719 16.0158 15.9797C16.0039 16.9992 15.9565 17.8312 15.9209 17.8312C15.8853 17.8312 15.7905 17.7141 15.7312 17.5617C15.4822 17.0344 14.2489 15.7219 13.5256 15.2062C12.0433 14.175 10.6677 13.6711 8.81783 13.507C7.82173 13.4133 7.51342 13.4836 7.51342 13.7766C7.51342 13.9875 9.10243 15.8742 9.77835 16.4601C10.5966 17.175 11.6875 17.7375 13.3477 18.3C15.5059 19.0383 15.9446 19.5539 16.1581 21.6398C16.2885 22.9992 16.336 24.3937 16.2292 24.3937C16.1937 24.3937 15.8142 24.0187 15.3754 23.5734C13.4188 21.5226 11.2488 20.4562 8.73482 20.3273C7.06281 20.2336 5.93627 20.4328 4.60815 21.0539C-0.0165758 23.1984 -1.15497 29.1281 2.05862 34.2961C3.42232 36.4992 6.62405 39.593 11.8535 43.8C12.8259 44.5851 14.3319 45.8391 15.1857 46.5891C16.0514 47.3391 16.8459 47.9484 16.9407 47.9484C17.1305 47.9484 17.9131 47.3156 23.0477 43.0383C30.6133 36.7453 32.8189 33.9797 33.5304 29.843C33.7676 28.5187 33.7676 27.968 33.5423 26.6672C33.0443 23.8547 31.1351 21.6633 28.3247 20.6789C27.459 20.3859 27.2337 20.3508 25.6566 20.3508C24.3166 20.3508 23.783 20.3976 23.2256 20.5617C21.1504 21.1945 19.7274 22.1086 18.2214 23.7961C17.7115 24.3703 17.2846 24.8273 17.2846 24.8156C17.2728 24.8156 17.2372 24.1828 17.2016 23.4211L17.1305 22.05L17.4862 21.6516C17.6759 21.4289 18.0436 21.1828 18.2807 21.1125C19.0159 20.8781 20.8421 19.8351 21.4824 19.2844C22.4193 18.4758 23.8778 16.3664 23.8778 15.8156C23.8778 15.4758 23.5576 15.4289 22.5023 15.6516C21.2927 15.8976 20.0239 16.4953 19.2887 17.1516C18.5653 17.8195 17.3795 19.2961 17.2846 19.6594C17.1542 20.1867 17.0356 19.9406 16.9645 18.968C16.7984 16.9172 16.9526 13.1437 17.2135 12.8859C17.2728 12.8273 17.6759 12.7101 18.1147 12.6164C19.8342 12.2531 21.0793 11.3508 21.7433 9.96796C22.2414 8.92499 22.3718 7.97577 22.2414 6.22968C22.1702 5.31561 22.1821 4.40155 22.2532 3.79218C22.3955 2.54999 22.2414 1.91718 21.6485 1.41327C21.2809 1.09686 21.1623 1.06171 20.6405 1.09686C20.1069 1.13202 20.012 1.09686 19.68 0.768738C19.0634 0.159363 18.1859 0.00701904 17.083 0.311707ZM18.9329 1.34296C19.0752 1.41327 19.2175 1.4953 19.2412 1.50702C19.2531 1.51874 19.1345 1.71796 18.9566 1.94061C18.672 2.31561 18.5653 2.36249 18.1147 2.36249C17.7234 2.36249 17.5929 2.31561 17.5336 2.13983C17.4981 2.02264 17.3676 1.83514 17.2372 1.71796C16.917 1.42499 16.9407 1.33124 17.3913 1.20233C17.8301 1.06171 18.5535 1.13202 18.9329 1.34296ZM15.4703 1.67108C15.9921 1.84686 16.6443 2.32733 16.6443 2.53827C16.6443 2.6203 16.5376 2.72577 16.419 2.77264C16.0514 2.88983 15.245 3.56952 14.913 4.03827L14.6165 4.48358L14.2963 4.23749C14.1185 4.09686 13.8457 3.89764 13.7034 3.79218C13.5018 3.63983 13.407 3.42889 13.3595 3.03046C13.3002 2.51483 13.324 2.45624 13.7746 2.01093C14.2845 1.4953 14.6995 1.41327 15.4703 1.67108ZM21.1979 2.26874C21.3046 2.40936 21.3876 2.72577 21.3876 2.96014C21.3876 3.29999 21.3283 3.40546 21.0911 3.51093C20.6879 3.69843 20.7354 3.71014 20.4389 3.25311C20.3085 3.03046 20.0832 2.8078 19.9646 2.77264C19.6326 2.66718 19.6681 2.39764 20.0595 2.19843C20.5338 1.94061 20.9844 1.96405 21.1979 2.26874ZM19.3717 3.51093C19.9409 3.78046 19.9053 4.02655 19.265 4.22577C18.5297 4.46014 17.249 5.71405 16.834 6.62811C16.6561 7.00311 16.4664 7.27264 16.419 7.21405C16.3715 7.15546 16.2292 6.87421 16.1225 6.59296C16.0158 6.32343 15.7905 5.90155 15.6363 5.66718C15.4703 5.4328 15.3399 5.17499 15.3399 5.10468C15.3399 4.92889 16.1107 4.00311 16.4427 3.78046C17.1542 3.27655 18.6365 3.14764 19.3717 3.51093ZM12.9208 4.48358C14.4031 5.10468 15.6245 7.13202 16.0988 9.75702C16.2055 10.3078 16.2885 11.0109 16.2885 11.3039C16.2885 11.9601 16.2055 11.9836 15.0553 11.6086C14.1303 11.3039 13.2528 10.5773 12.7429 9.69843C12.316 8.97186 12.067 7.82343 11.9721 6.17108C11.9247 5.52655 11.8535 4.79999 11.7943 4.55389L11.6875 4.10858L12.0551 4.19061C12.2567 4.22577 12.648 4.36639 12.9208 4.48358ZM21.1979 5.13983C21.2334 5.32733 21.3046 6.07733 21.3401 6.82733C21.4232 8.25702 21.3046 8.90155 20.7591 9.86249C20.1899 10.882 19.1464 11.5266 17.6404 11.7844L17.2609 11.843L17.166 10.8234C16.9526 8.69061 17.3321 7.06171 18.2807 6.07733C18.7788 5.54999 19.763 4.96405 20.2136 4.90546C21.103 4.79999 21.1148 4.81171 21.1979 5.13983ZM10.6559 14.7492C11.8773 15.1359 13.5374 16.2375 14.2845 17.1633C14.5454 17.4914 14.7351 17.7726 14.7114 17.7844C14.6877 17.8078 14.3794 17.7141 14.0236 17.5734C13.6679 17.4445 13.2765 17.2922 13.1461 17.2453C11.8891 16.7766 10.81 16.1555 10.0392 15.4406C9.5649 14.9953 9.17358 14.5969 9.17358 14.5383C9.17358 14.3976 9.83764 14.5031 10.6559 14.7492ZM22.4548 16.6242C22.443 16.882 21.2097 18.3351 20.6524 18.7453C19.9409 19.2726 18.3282 20.1164 18.2214 20.0109C18.1503 19.9406 18.5416 19.3898 19.3598 18.4289C19.929 17.7492 20.7947 17.1516 21.7078 16.7883C22.3481 16.5305 22.4548 16.507 22.4548 16.6242ZM10.1934 21.4641C11.1539 21.7101 12.1737 22.1789 13.0868 22.7883C13.7864 23.2687 15.1739 24.6281 15.8142 25.4836L16.3241 26.1633L15.7905 27.3C14.9841 29.0109 14.8181 29.5734 14.8181 30.7805C14.8062 32.2805 15.1739 33.0891 16.0869 33.5461C17 34.0148 18.1977 33.6047 18.6839 32.6672C19.0041 32.0578 19.0989 30.6398 18.9092 29.5383C18.8143 29.0226 18.5297 28.2961 18.1266 27.4875L17.4981 26.2219L17.9843 25.5187C18.672 24.5695 20.0002 23.2453 20.8777 22.6594C22.6564 21.4641 25.0992 20.9601 27.21 21.3469C27.9096 21.4758 27.9452 21.4875 29.1192 22.0383C30.0797 22.4953 31.3841 23.7141 31.8466 24.5812C32.9138 26.5969 33.0324 29.093 32.1667 31.4719C30.9335 34.8469 28.6211 37.2726 19.3954 44.843C18.1384 45.8742 17.0593 46.7297 17.0119 46.7531C16.9526 46.7648 16.1462 46.132 15.2094 45.3469C14.2726 44.55 12.7548 43.3078 11.8417 42.5695C6.61219 38.3508 3.63577 35.3625 2.43808 33.1242C1.0981 30.6164 0.801644 28.0031 1.59615 25.6476C2.34322 23.4094 4.3947 21.7101 6.80192 21.3117C7.66758 21.1711 9.30402 21.2414 10.1934 21.4641ZM17.4151 28.0383C18.174 29.6086 18.3637 31.3312 17.8894 32.257C17.5336 32.9367 16.7036 33.0422 16.1699 32.4797C15.5889 31.8703 15.5177 30.5109 15.9921 29.1164C16.2648 28.3078 16.8222 27.2062 16.9526 27.2062C16.9882 27.2062 17.1898 27.5812 17.4151 28.0383Z" fill="black"/>
</g>
<defs>
<clipPath id="clip0_3334_2">
<rect width="34" height="48" fill="white"/>
</clipPath>
</defs>
</svg>
